<svg width="92" height="31" viewBox="0 0 92 31" fill="none" xmlns="http://www.w3.org/2000/svg">
<path d="M8.048 9.97599C11.184 9.97599 12.784 12.504 12.784 15.448V23H15.952V15.064C15.952 10.52 13.168 6.93599 8.048 6.93599C2.992 6.93599 0.272003 10.52 0.272003 15.096V23H3.44V15.416C3.44 12.504 4.976 9.97599 8.048 9.97599Z" fill="white"/>
<path d="M22.6988 4.21599C23.8508 4.21599 24.7468 3.28799 24.7468 2.13599C24.7468 0.983988 23.8508 0.0239868 22.6988 0.0239868C21.5468 0.0239868 20.6188 0.983988 20.6188 2.13599C20.6188 3.28799 21.5468 4.21599 22.6988 4.21599ZM21.1308 7.31999V23H24.2988V7.31999H21.1308Z" fill="white"/>
<path d="M45.1715 30.2V15.128C45.1715 10.456 41.5555 6.93599 36.8195 6.93599C32.0515 6.93599 28.4675 10.648 28.4675 15.128C28.4675 19.864 31.9235 23.384 36.6595 23.384C38.7715 23.384 40.7235 22.456 42.0035 21.016V30.2H45.1715ZM36.8195 20.408C33.9075 20.408 31.6355 18.008 31.6355 15.16C31.6355 12.28 33.9075 9.94399 36.8195 9.94399C39.7635 9.94399 42.0035 12.28 42.0035 15.16C42.0035 18.008 39.7635 20.408 36.8195 20.408Z" fill="white"/>
<path d="M57.1975 20.312C54.3175 20.312 52.7495 17.784 52.7495 14.904V7.31999H49.5815V15.224C49.5815 19.768 52.3335 23.384 57.1975 23.384C62.1255 23.384 64.8775 19.8 64.8775 15.256V7.31999H61.7095V14.872C61.7095 17.784 60.1095 20.312 57.1975 20.312Z" fill="white"/>
<path d="M76.6312 23.352C79.7032 23.352 82.2313 21.912 83.6073 19.224L81.1752 17.976C80.2472 19.704 78.5193 20.536 76.5993 20.536C73.7833 20.536 71.7352 18.648 71.3832 15.96H83.9272V14.68C83.9272 10.296 80.9833 6.87199 76.2473 6.87199C71.5433 6.87199 68.3112 10.552 68.3112 15.064C68.3112 19.896 71.8632 23.352 76.6312 23.352ZM71.5113 13.912C71.8313 11.576 73.5592 9.71999 76.2152 9.71999C78.8072 9.71999 80.6312 11.416 80.7592 13.912H71.5113Z" fill="white"/>
<path d="M89.765 23.288C90.917 23.288 91.845 22.36 91.845 21.208C91.845 20.056 90.917 19.16 89.765 19.16C88.613 19.16 87.685 20.056 87.685 21.208C87.685 22.36 88.613 23.288 89.765 23.288Z" fill="white"/>
</svg>
